<svg width="24" height="25" viewBox="0 0 24 25" fill="none" xmlns="http://www.w3.org/2000/svg">
<path d="M4 7.58362H20M19 7.58362L18.133 19.7256C18.0971 20.2302 17.8713 20.7024 17.5011 21.0472C17.1309 21.392 16.6439 21.5836 16.138 21.5836H7.862C7.35614 21.5836 6.86907 21.392 6.49889 21.0472C6.1287 20.7024 5.90292 20.2302 5.867 19.7256L5 7.58362H19ZM10 11.5836V17.5836V11.5836ZM14 11.5836V17.5836V11.5836ZM15 7.58362V4.58362C15 4.3184 14.8946 4.06405 14.7071 3.87651C14.5196 3.68897 14.2652 3.58362 14 3.58362H10C9.73478 3.58362 9.48043 3.68897 9.29289 3.87651C9.10536 4.06405 9 4.3184 9 4.58362V7.58362H15Z" stroke="#2F4FCD" stroke-linecap="round" stroke-linejoin="round"/>
</svg>
