<svg width="36" height="36" viewBox="0 0 36 36" fill="none" xmlns="http://www.w3.org/2000/svg">
<path d="M4.5 13.5C4.5 12.7044 4.81607 11.9413 5.37868 11.3787C5.94129 10.8161 6.70435 10.5 7.5 10.5H8.895C9.38878 10.5001 9.87494 10.3783 10.3103 10.1454C10.7458 9.9125 11.117 9.57575 11.391 9.165L12.609 7.335C12.883 6.92425 13.2542 6.5875 13.6897 6.35462C14.1251 6.12173 14.6112 5.99993 15.105 6H20.895C21.3888 5.99993 21.8749 6.12173 22.3103 6.35462C22.7458 6.5875 23.117 6.92425 23.391 7.335L24.609 9.165C24.883 9.57575 25.2542 9.9125 25.6897 10.1454C26.1251 10.3783 26.6112 10.5001 27.105 10.5H28.5C29.2956 10.5 30.0587 10.8161 30.6213 11.3787C31.1839 11.9413 31.5 12.7044 31.5 13.5V27C31.5 27.7956 31.1839 28.5587 30.6213 29.1213C30.0587 29.6839 29.2956 30 28.5 30H7.5C6.70435 30 5.94129 29.6839 5.37868 29.1213C4.81607 28.5587 4.5 27.7956 4.5 27V13.5Z" stroke="#2F4FCD" stroke-width="1.5" stroke-linecap="round" stroke-linejoin="round"/>
<path d="M22.5 19.5C22.5 20.6935 22.0259 21.8381 21.182 22.682C20.3381 23.5259 19.1935 24 18 24C16.8065 24 15.6619 23.5259 14.818 22.682C13.9741 21.8381 13.5 20.6935 13.5 19.5C13.5 18.3065 13.9741 17.1619 14.818 16.318C15.6619 15.4741 16.8065 15 18 15C19.1935 15 20.3381 15.4741 21.182 16.318C22.0259 17.1619 22.5 18.3065 22.5 19.5V19.5Z" stroke="#2F4FCD" stroke-width="1.5" stroke-linecap="round" stroke-linejoin="round"/>
</svg>
