<svg width="24" height="25" viewBox="0 0 24 25" fill="none" xmlns="http://www.w3.org/2000/svg">
<path d="M11 5.76002H6C5.46957 5.76002 4.96086 5.97073 4.58579 6.34581C4.21071 6.72088 4 7.22959 4 7.76002V18.76C4 19.2905 4.21071 19.7992 4.58579 20.1742C4.96086 20.5493 5.46957 20.76 6 20.76H17C17.5304 20.76 18.0391 20.5493 18.4142 20.1742C18.7893 19.7992 19 19.2905 19 18.76V13.76M17.586 4.34602C17.7705 4.155 17.9912 4.00263 18.2352 3.89782C18.4792 3.793 18.7416 3.73783 19.0072 3.73552C19.2728 3.73321 19.5361 3.78381 19.7819 3.88438C20.0277 3.98494 20.251 4.13344 20.4388 4.32123C20.6266 4.50901 20.7751 4.73232 20.8756 4.97811C20.9762 5.2239 21.0268 5.48726 21.0245 5.75282C21.0222 6.01838 20.967 6.28082 20.8622 6.52483C20.7574 6.76884 20.605 6.98953 20.414 7.17402L11.828 15.76H9V12.932L17.586 4.34602Z" stroke="#2F4FCD" stroke-linecap="round" stroke-linejoin="round"/>
</svg>
