<svg width="204" height="204" viewBox="0 0 204 204" fill="none" xmlns="http://www.w3.org/2000/svg">
<path d="M44.0001 14.9997C36.3088 14.9997 28.9326 18.0551 23.494 23.4936C18.0554 28.9322 15.0001 36.3085 15.0001 43.9997V65.7497C15.0001 67.6726 14.2363 69.5166 12.8766 70.8763C11.517 72.2359 9.67291 72.9997 7.75009 72.9997C5.82727 72.9997 3.98321 72.2359 2.62357 70.8763C1.26393 69.5166 0.500092 67.6726 0.500092 65.7497V43.9997C0.500092 32.4628 5.08312 21.3984 13.2409 13.2406C21.3988 5.08275 32.4632 0.499725 44.0001 0.499725H65.7501C67.6729 0.499725 69.517 1.26356 70.8766 2.6232C72.2363 3.98284 73.0001 5.82691 73.0001 7.74973C73.0001 9.67255 72.2363 11.5166 70.8766 12.8762C69.517 14.2359 67.6729 14.9997 65.7501 14.9997H44.0001ZM44.0001 51.2497C44.0001 49.3269 44.7639 47.4828 46.1236 46.1232C47.4832 44.7636 49.3273 43.9997 51.2501 43.9997H152.75C154.673 43.9997 156.517 44.7636 157.877 46.1232C159.236 47.4828 160 49.3269 160 51.2497C160 53.1725 159.236 55.0166 157.877 56.3763C156.517 57.7359 154.673 58.4997 152.75 58.4997H51.2501C49.3273 58.4997 47.4832 57.7359 46.1236 56.3763C44.7639 55.0166 44.0001 53.1725 44.0001 51.2497ZM44.0001 94.7497C44.0001 92.8269 44.7639 90.9828 46.1236 89.6232C47.4832 88.2636 49.3273 87.4997 51.2501 87.4997H152.75C154.673 87.4997 156.517 88.2636 157.877 89.6232C159.236 90.9828 160 92.8269 160 94.7497C160 96.6726 159.236 98.5166 157.877 99.8763C156.517 101.236 154.673 102 152.75 102H51.2501C49.3273 102 47.4832 101.236 46.1236 99.8763C44.7639 98.5166 44.0001 96.6726 44.0001 94.7497ZM51.2501 131C49.3273 131 47.4832 131.764 46.1236 133.123C44.7639 134.483 44.0001 136.327 44.0001 138.25C44.0001 140.173 44.7639 142.017 46.1236 143.376C47.4832 144.736 49.3273 145.5 51.2501 145.5H109.25C111.173 145.5 113.017 144.736 114.377 143.376C115.736 142.017 116.5 140.173 116.5 138.25C116.5 136.327 115.736 134.483 114.377 133.123C113.017 131.764 111.173 131 109.25 131H51.2501ZM138.25 0.499725C136.327 0.499725 134.483 1.26356 133.124 2.6232C131.764 3.98284 131 5.82691 131 7.74973C131 9.67255 131.764 11.5166 133.124 12.8762C134.483 14.2359 136.327 14.9997 138.25 14.9997H160C167.691 14.9997 175.068 18.0551 180.506 23.4936C185.945 28.9322 189 36.3085 189 43.9997V65.7497C189 67.6726 189.764 69.5166 191.124 70.8763C192.483 72.2359 194.327 72.9997 196.25 72.9997C198.173 72.9997 200.017 72.2359 201.377 70.8763C202.736 69.5166 203.5 67.6726 203.5 65.7497V43.9997C203.5 32.4628 198.917 21.3984 190.759 13.2406C182.601 5.08275 171.537 0.499725 160 0.499725H138.25ZM7.75009 131C9.67291 131 11.517 131.764 12.8766 133.123C14.2363 134.483 15.0001 136.327 15.0001 138.25V160C15.0001 167.691 18.0554 175.067 23.494 180.506C28.9326 185.944 36.3088 189 44.0001 189H65.7501C67.6729 189 69.517 189.764 70.8766 191.123C72.2363 192.483 73.0001 194.327 73.0001 196.25C73.0001 198.173 72.2363 200.017 70.8766 201.376C69.517 202.736 67.6729 203.5 65.7501 203.5H44.0001C32.4632 203.5 21.3988 198.917 13.2409 190.759C5.08312 182.601 0.500092 171.537 0.500092 160V138.25C0.500092 136.327 1.26393 134.483 2.62357 133.123C3.98321 131.764 5.82727 131 7.75009 131ZM203.5 138.25C203.5 136.327 202.736 134.483 201.377 133.123C200.017 131.764 198.173 131 196.25 131C194.327 131 192.483 131.764 191.124 133.123C189.764 134.483 189 136.327 189 138.25V160C189 167.691 185.945 175.067 180.506 180.506C175.068 185.944 167.691 189 160 189H138.25C136.327 189 134.483 189.764 133.124 191.123C131.764 192.483 131 194.327 131 196.25C131 198.173 131.764 200.017 133.124 201.376C134.483 202.736 136.327 203.5 138.25 203.5H160C171.537 203.5 182.601 198.917 190.759 190.759C198.917 182.601 203.5 171.537 203.5 160V138.25Z" fill="#009688"/>
</svg>
